<?xml version="1.0" standalone="no"?>
<!DOCTYPE svg PUBLIC "-//W3C//DTD SVG 20010904//EN"
 "http://www.w3.org/TR/2001/REC-SVG-20010904/DTD/svg10.dtd">
<svg version="1.0" xmlns="http://www.w3.org/2000/svg"
 width="475.000000pt" height="475.000000pt" viewBox="0 0 475.000000 475.000000"
 preserveAspectRatio="xMidYMid meet">
<metadata>
Created by potrace 1.14, written by Peter Selinger 2001-2017
</metadata>
<g transform="translate(0.000000,475.000000) scale(0.100000,-0.100000)"
fill="#000000" stroke="none">
<path d="M4 4263 c4 -517 6 -565 24 -571 15 -5 16 -62 2 -62 -5 0 -10 10 -10
22 0 12 -3 19 -6 15 -10 -10 6 -58 17 -52 6 4 10 -9 9 -37 -1 -75 12 -188 23
-188 5 0 8 20 5 49 -4 42 -3 47 9 36 7 -8 13 -18 12 -22 -5 -29 3 -63 14 -63
8 0 13 -10 13 -22 -1 -18 5 -23 24 -23 15 0 29 -8 34 -20 8 -18 10 -17 16 10
7 28 8 29 15 8 7 -23 25 -32 25 -13 0 6 10 5 25 -2 21 -10 28 -8 40 8 20 27
19 47 -3 42 -16 -4 -19 2 -21 39 -1 25 4 52 10 60 7 8 14 31 15 51 0 21 5 61
9 90 7 46 10 53 29 50 15 -2 31 10 59 46 20 27 37 55 37 62 0 7 4 16 10 19 6
4 7 -1 3 -12 -6 -14 -2 -14 22 5 26 20 39 23 107 21 43 -2 78 -7 78 -12 0 -4
10 -7 22 -5 15 2 26 -4 34 -21 11 -21 13 -22 17 -5 4 15 5 16 6 2 1 -10 13
-19 31 -23 17 -4 28 -11 24 -16 -3 -5 4 -9 15 -9 13 0 33 -16 52 -42 17 -24
34 -43 37 -43 4 0 20 -10 35 -21 29 -23 29 -21 1 -138 -5 -19 -3 -27 4 -22 5
3 13 30 17 59 13 95 74 315 116 418 l41 101 -28 24 c-48 39 -74 68 -74 81 0 7
-5 13 -11 13 -5 0 -7 5 -4 10 3 6 1 10 -6 10 -7 0 -9 3 -6 6 4 4 -2 19 -12 33
-10 14 -20 33 -23 41 -4 8 -13 32 -22 53 -19 44 -13 49 9 7 9 -17 41 -57 73
-89 31 -32 73 -78 92 -101 l35 -43 39 62 c25 42 40 80 45 117 5 31 16 64 28
77 11 12 32 57 48 100 20 58 34 81 54 91 30 16 49 37 79 87 l22 36 -55 -5
c-48 -4 -58 -1 -86 22 l-31 26 39 16 c21 9 54 22 73 30 29 10 -80 13 -673 13
l-708 1 5 -487z m946 -263 c6 0 21 -10 34 -21 23 -20 24 -24 11 -49 -15 -28
-40 -44 -55 -35 -5 3 -11 1 -15 -5 -10 -17 -25 -11 -36 14 -8 17 -26 28 -58
36 -25 7 -49 16 -53 19 -14 13 22 42 73 60 53 18 54 18 72 0 10 -11 22 -19 27
-19z m-886 -422 c-4 -45 -9 -77 -12 -70 -5 17 8 165 15 159 2 -3 1 -43 -3 -89z"/>
<path d="M1895 4740 c4 -6 1 -18 -7 -27 -7 -9 -12 -18 -10 -20 8 -11 0 -22
-13 -17 -22 9 -18 -3 15 -44 34 -43 60 -111 60 -156 0 -34 -31 -109 -49 -120
-15 -9 -14 -26 1 -26 6 0 8 3 5 6 -3 4 8 20 25 36 42 39 60 75 60 118 0 19 3
26 5 16 4 -13 7 -15 13 -7 4 8 10 -5 15 -31 8 -43 8 -43 16 -13 5 20 6 11 2
-25 -3 -30 -11 -69 -18 -85 -26 -65 -113 -125 -201 -138 -47 -8 -142 14 -192
44 -18 10 -39 19 -46 19 -21 0 -65 -25 -82 -46 -14 -18 -15 -18 -10 6 3 14 3
19 0 12 -3 -6 -9 -10 -14 -7 -15 9 -30 -19 -18 -35 8 -12 9 -12 4 2 -3 10 -1
20 4 23 11 7 13 -15 4 -39 -6 -15 -8 -15 -21 1 -8 10 -12 12 -8 6 3 -7 1 -13
-6 -13 -8 0 -8 -4 -1 -12 7 -9 5 -17 -6 -28 -14 -13 -15 -12 -9 3 3 9 4 17 2
17 -6 0 -36 -58 -34 -66 0 -4 -4 -10 -10 -13 -5 -4 -21 -31 -35 -61 l-25 -54
51 -34 c105 -71 387 -164 428 -142 11 6 25 8 30 5 6 -4 9 -1 8 7 -2 8 6 13 19
12 12 0 19 4 16 9 -4 6 1 8 11 4 11 -5 15 -3 10 5 -5 8 -1 9 12 4 14 -5 16 -4
8 4 -8 8 -19 8 -38 0 -28 -10 -46 -6 -46 10 0 19 105 70 145 70 22 0 46 4 54
9 8 5 27 5 45 -1 53 -18 49 -25 -11 -21 -44 2 -53 1 -38 -7 18 -9 17 -10 -5
-4 -34 8 -90 15 -66 7 16 -4 12 -8 -18 -18 -21 -8 -45 -11 -54 -8 -11 5 -13 3
-7 -7 5 -8 4 -11 -2 -7 -6 4 -16 0 -23 -8 -15 -18 -16 -18 44 0 27 8 62 15 78
15 40 0 23 -16 -64 -59 -71 -35 -133 -86 -123 -101 3 -6 0 -7 -8 -4 -9 3 -19
-6 -27 -25 -7 -17 -16 -31 -20 -31 -11 0 -30 -82 -30 -131 0 -23 -3 -39 -7
-35 -11 11 -10 110 1 117 5 4 -24 23 -63 43 -72 36 -221 127 -253 154 -10 8
-18 13 -18 10 0 -4 -14 7 -31 23 -17 16 -36 29 -43 29 -6 0 -4 -5 4 -10 8 -5
11 -10 6 -10 -5 0 -2 -8 5 -17 13 -15 12 -16 -9 -11 -24 7 -30 -2 -46 -62 -5
-18 -2 -16 13 10 l20 35 -2 -42 c-1 -24 -4 -43 -8 -43 -3 0 -3 -21 2 -47 4
-27 5 -50 3 -52 -2 -2 -4 2 -4 10 0 11 -2 11 -10 -1 -5 -8 -10 -27 -10 -42 0
-16 -4 -28 -10 -28 -5 0 -10 -16 -10 -35 0 -19 4 -35 9 -35 6 0 6 -12 1 -30
-5 -18 -5 -32 1 -36 6 -3 10 -23 8 -43 -1 -20 -1 -44 0 -53 1 -22 21 -24 21
-3 0 8 6 13 13 11 52 -17 66 -16 72 5 4 12 12 18 21 15 8 -3 14 1 14 9 0 8 3
15 8 15 14 0 34 61 30 95 -4 37 2 44 21 21 6 -8 25 -19 41 -26 17 -7 30 -19
30 -26 0 -19 9 -18 32 3 15 14 21 15 27 4 6 -9 10 -10 15 -2 11 17 26 3 27
-27 1 -19 4 -15 8 13 l6 40 30 -33 30 -34 8 34 c5 18 9 47 8 63 0 24 2 27 10
15 8 -12 9 -10 4 7 -5 17 7 35 61 90 50 52 58 57 32 23 -19 -25 -40 -55 -47
-68 -7 -12 -17 -20 -22 -16 -8 4 -8 0 0 -13 7 -14 6 -33 -4 -68 -8 -26 -16
-62 -16 -79 l-1 -31 -8 30 c-6 23 -8 15 -9 -37 -1 -58 3 -73 30 -117 l31 -50
-21 -34 c-36 -58 -102 -110 -209 -165 -90 -47 -114 -55 -190 -63 -48 -5 -113
-6 -144 -3 -67 8 -288 -11 -403 -33 -50 -10 -104 -29 -145 -51 -37 -20 -77
-35 -92 -34 -14 1 -33 -5 -42 -14 -15 -15 -22 -8 -17 19 3 15 -44 -26 -82 -72
-53 -65 -78 -122 -90 -204 -7 -53 -7 -87 2 -129 14 -65 25 -75 28 -25 4 54 53
174 103 250 51 79 107 133 185 178 48 28 86 40 55 18 -12 -9 -12 -10 3 -5 10
3 23 6 28 6 6 0 7 5 4 10 -4 7 2 9 17 6 12 -3 39 -1 58 4 33 9 33 9 -10 4 -74
-8 -38 6 56 22 76 13 108 14 217 4 245 -23 419 -10 508 35 16 9 35 13 41 9 7
-5 8 -3 3 6 -6 9 -4 11 5 5 9 -5 11 -4 6 3 -5 9 -17 7 -44 -7 -77 -38 -85 -32
-17 14 107 74 155 116 176 158 11 20 21 37 24 37 9 0 -17 -59 -36 -78 -21 -24
-25 -37 -7 -26 18 12 -26 -47 -61 -80 -17 -16 -28 -34 -24 -39 3 -6 1 -7 -5
-3 -6 3 -15 -1 -19 -9 -5 -8 -19 -17 -30 -19 -30 -6 -74 -36 -68 -47 3 -4 -8
-18 -25 -30 -20 -15 -28 -29 -25 -40 3 -10 -1 -19 -10 -23 -9 -3 -13 -2 -10 4
3 6 -4 10 -17 10 -22 0 -22 1 7 26 l30 26 -33 -22 c-18 -12 -30 -25 -27 -30 3
-4 -11 -17 -31 -29 -40 -24 -48 -26 -38 -9 4 7 3 8 -5 4 -6 -4 -9 -11 -6 -16
3 -5 -26 -25 -64 -45 -52 -26 -104 -41 -206 -60 -75 -14 -142 -25 -148 -25 -7
0 -6 -4 3 -10 9 -6 10 -10 3 -10 -23 0 -24 20 -1 29 13 6 17 10 10 10 -23 1
-145 -70 -186 -108 -48 -44 -96 -118 -96 -146 0 -28 -27 -134 -42 -162 -9 -18
-8 -44 4 -115 18 -112 77 -253 156 -372 29 -44 66 -117 82 -161 48 -137 81
-220 90 -229 5 -5 -3 27 -18 70 -24 72 -26 92 -25 229 0 172 26 343 68 446 14
35 22 51 19 34 -20 -92 -23 -116 -24 -176 -1 -161 46 -306 135 -418 l35 -44 0
39 c0 21 8 53 18 71 67 122 107 207 123 261 l18 64 -24 55 c-24 53 -31 83 -20
83 3 0 21 -6 39 -14 l34 -14 15 36 c9 21 19 60 22 87 4 28 15 59 25 70 17 18
18 26 8 64 -11 44 -11 45 22 70 19 14 61 49 94 78 46 40 78 58 139 78 72 23
80 24 107 10 16 -8 50 -37 75 -64 35 -37 51 -48 67 -43 14 3 19 1 14 -6 -4 -8
12 -10 55 -8 37 1 62 -2 64 -8 1 -6 10 -47 20 -91 33 -152 80 -221 203 -293
35 -20 58 -38 52 -40 -19 -7 -31 -51 -20 -73 14 -25 31 -24 65 3 l28 22 -6
-31 c-9 -46 10 -93 36 -92 15 0 17 2 7 6 -8 3 -18 11 -22 17 -9 13 -10 63 -2
94 7 24 24 30 24 8 0 -20 48 -56 74 -56 17 1 14 4 -11 15 -29 12 -71 60 -61
70 2 2 25 -4 52 -13 46 -16 48 -16 62 2 8 11 14 29 14 40 0 14 17 32 45 51 60
40 107 98 159 194 30 58 45 77 55 72 11 -7 11 -10 0 -14 -8 -3 -3 -6 10 -6 48
-2 111 40 194 130 48 52 90 89 101 89 62 0 102 -25 196 -120 142 -145 178
-215 155 -302 -6 -24 -4 -28 14 -28 25 0 26 -11 6 -50 -10 -19 -13 -40 -9 -57
14 -56 73 -160 112 -195 74 -67 87 -108 58 -189 -12 -34 -11 -40 18 -87 29
-47 35 -52 104 -72 40 -12 75 -20 77 -19 1 2 18 56 36 119 45 154 47 273 6
400 -26 81 -46 127 -47 105 -1 -13 -29 36 -29 50 0 6 6 -1 14 -15 20 -35 19
-18 -2 24 -9 19 -21 32 -26 29 -6 -4 -8 1 -4 11 4 9 3 15 -2 11 -15 -8 -50 48
-54 87 -5 43 -77 143 -213 292 -54 61 -119 132 -144 159 -40 45 -33 41 69 -38
224 -175 303 -260 406 -441 138 -243 225 -601 190 -787 -4 -20 -5 -37 -1 -37
10 0 45 85 56 136 23 103 9 394 -25 496 -13 39 -14 40 -9 8 l5 -35 -17 33
c-21 41 -36 41 -29 -1 4 -21 2 -27 -4 -18 -7 11 -11 10 -21 -5 -9 -16 -11 -16
-6 -2 3 10 1 20 -4 23 -6 4 -10 11 -10 18 0 6 6 3 13 -8 10 -12 16 -14 21 -7
4 7 2 12 -3 12 -6 0 -11 9 -11 21 0 11 -4 18 -8 15 -4 -2 -8 4 -8 15 0 14 5
19 18 16 10 -3 21 0 24 5 4 6 13 -2 20 -18 7 -16 13 -23 13 -17 1 13 -20 71
-53 146 -16 37 -16 38 2 28 59 -32 224 -257 262 -357 54 -146 43 -318 -31
-443 -11 -18 -19 -35 -17 -36 2 -2 24 -1 49 2 46 5 46 6 82 77 60 118 78 181
78 276 0 170 -46 320 -139 458 -36 54 -212 233 -222 227 -4 -2 -18 8 -31 23
l-24 27 30 -25 c28 -23 27 -22 -4 12 -19 21 -38 35 -43 32 -5 -3 -7 -1 -6 4 4
13 -82 81 -170 135 -39 24 -68 48 -64 52 4 5 1 5 -5 1 -8 -4 -71 26 -150 70
-200 113 -271 160 -328 219 -47 48 -123 161 -114 169 2 2 29 -19 59 -46 30
-28 48 -47 40 -42 -28 14 24 -38 75 -75 101 -75 99 -65 -3 14 -34 26 -60 50
-58 52 2 2 38 -18 80 -46 84 -55 180 -89 406 -147 80 -20 172 -50 205 -67 96
-48 211 -125 249 -167 57 -63 117 -192 132 -285 l13 -80 -5 80 c-6 92 -21 128
-129 300 -73 119 -134 199 -144 190 -3 -3 1 -10 9 -15 8 -6 11 -10 6 -10 -14
0 -78 51 -72 57 3 3 13 0 23 -8 11 -9 14 -10 9 -2 -4 7 -16 18 -28 24 -16 8
-19 8 -13 -1 5 -8 3 -11 -6 -8 -8 3 -14 10 -14 15 0 6 -4 15 -9 20 -5 5 -6 3
-2 -4 10 -18 -5 -16 -29 4 -16 13 -17 15 -2 10 9 -4 17 -4 17 -1 0 7 -92 45
-97 40 -3 -2 5 -7 16 -11 25 -8 27 -21 4 -29 -14 -6 -14 -8 3 -21 12 -9 0 -7
-31 6 -57 23 -72 35 -34 26 14 -4 29 -4 32 -1 9 9 -4 35 -14 28 -5 -3 -9 -1
-9 4 0 11 -3 11 -135 16 -49 2 -80 2 -67 -1 12 -2 35 -11 50 -20 l27 -15 -30
6 c-16 4 -46 9 -65 12 -19 3 -42 10 -50 16 -11 7 -10 8 8 5 45 -10 20 9 -28
20 -52 12 -202 84 -232 110 -9 8 -22 12 -28 8 -6 -3 -9 -3 -8 2 1 4 -34 44
-78 88 -90 89 -131 160 -141 244 -4 34 -9 48 -14 39 -7 -10 -9 -10 -9 2 0 32
-22 93 -29 82 -4 -7 -17 18 -29 56 -14 45 -17 61 -7 48 18 -24 30 -15 17 11
-5 10 -22 44 -38 76 -31 67 -87 130 -157 177 -67 45 -196 103 -213 96 -9 -3
-12 -1 -9 4 4 6 -23 10 -72 11 -133 2 -186 -2 -243 -18 -55 -15 -120 -24 -120
-16 0 9 91 44 99 38 5 -3 11 0 13 5 5 17 136 33 233 28 87 -5 194 -33 219 -59
8 -7 5 -8 -9 -4 -18 6 -18 5 -2 -5 9 -6 22 -8 29 -4 6 4 8 3 5 -3 -4 -6 0 -14
9 -17 10 -4 13 -2 8 6 -13 21 79 -37 93 -59 9 -13 21 -23 28 -23 6 0 20 -9 30
-20 10 -11 15 -20 10 -20 -4 0 4 -9 19 -21 15 -11 49 -67 77 -124 36 -74 56
-105 72 -109 32 -9 39 -7 31 6 -5 8 14 10 77 5 46 -4 94 -9 107 -11 17 -4 22
0 23 17 1 18 2 19 6 4 3 -11 -5 -30 -18 -45 -13 -15 -18 -22 -10 -15 7 6 21 9
30 6 14 -4 14 -3 1 7 -13 10 -13 11 0 8 8 -3 19 -14 25 -26 5 -12 13 -22 17
-22 7 0 -11 50 -22 60 -3 3 -6 12 -8 20 -18 94 -336 750 -363 750 -7 0 -60
-104 -60 -117 0 -4 -10 -19 -22 -32 -12 -13 -15 -20 -7 -16 13 8 13 6 1 -8 -7
-9 -17 -14 -22 -11 -5 3 -9 1 -9 -5 0 -6 -20 -22 -45 -37 -25 -14 -45 -30 -45
-35 0 -12 -62 -39 -73 -32 -4 2 -15 -1 -24 -9 -10 -8 -14 -8 -10 -1 5 8 0 10
-20 4 -33 -9 -66 -3 -58 10 3 5 -2 6 -11 2 -12 -4 -15 -3 -10 6 6 9 0 10 -21
6 -21 -5 -24 -4 -13 4 12 9 10 11 -10 11 -20 0 -22 2 -10 10 13 8 12 10 -4 10
-29 0 -70 50 -111 136 -61 129 -58 254 7 334 35 42 145 111 183 115 6 0 26 5
45 10 46 11 60 12 88 3 17 -6 22 -4 22 10 0 23 -10 37 -37 51 -29 15 -797 16
-788 1z m285 -224 c0 -11 -19 -15 -25 -6 -3 5 1 10 9 10 9 0 16 -2 16 -4z
m128 -320 c3 -12 -1 -17 -10 -14 -7 3 -15 13 -16 22 -3 12 1 17 10 14 7 -3 15
-13 16 -22z m573 -239 c-13 -13 -26 -3 -16 12 3 6 11 8 17 5 6 -4 6 -10 -1
-17z m-761 -17 c0 -5 -12 -6 -27 -4 -15 3 -39 6 -54 7 -30 2 -27 13 6 19 24 5
75 -10 75 -22z m-477 5 c-6 -17 -25 -15 -31 3 -2 7 5 12 17 12 14 0 19 -5 14
-15z m257 -284 c-10 -20 -30 -37 -30 -27 0 6 33 46 38 46 1 0 -2 -9 -8 -19z
m49 -42 c-5 -11 -12 -19 -15 -19 -3 0 -3 4 0 9 3 5 -1 14 -9 21 -12 10 -13 16
-3 27 10 13 14 13 25 -2 8 -13 9 -23 2 -36z m36 41 c-3 -5 -12 -10 -18 -10 -7
0 -6 4 3 10 19 12 23 12 15 0z m284 -392 c10 -26 47 -55 58 -45 2 3 -1 24 -7
47 -6 23 -9 44 -6 47 2 3 8 -11 12 -31 4 -22 15 -41 27 -48 24 -13 158 -3 168
13 3 6 4 22 2 37 -5 26 -4 26 17 -7 12 -18 19 -39 17 -45 -3 -8 6 -10 29 -8
32 4 33 5 19 25 -8 12 -15 28 -15 37 0 8 10 -1 21 -20 27 -43 49 -61 71 -56
17 4 84 -39 81 -52 -1 -4 -15 -77 -33 -162 -30 -148 -33 -157 -70 -195 -21
-22 -41 -50 -45 -62 -6 -21 -3 -23 29 -23 l35 0 -6 -133 c-7 -155 6 -213 63
-275 24 -26 32 -43 28 -57 -13 -42 -58 -122 -96 -172 -46 -61 -126 -119 -142
-103 -17 17 -52 11 -95 -18 -51 -35 -89 -34 -162 4 -79 39 -155 116 -178 180
-23 61 -51 175 -51 208 0 13 7 38 16 56 23 44 52 162 60 238 8 78 26 92 76 62
41 -25 48 -25 48 0 0 13 -22 37 -57 65 -32 25 -69 61 -82 80 -13 19 -27 35
-32 35 -15 0 -80 62 -95 91 -7 15 -14 42 -14 60 0 29 2 31 29 27 20 -3 27 0
24 8 -2 7 0 15 6 19 6 3 8 17 5 29 -5 19 -1 25 23 31 32 8 116 16 186 18 26 1
47 4 47 6 0 15 -43 30 -85 31 -27 0 -55 4 -61 8 -14 9 -27 102 -14 102 6 0 10
-8 10 -19 0 -10 5 -32 11 -48 10 -29 12 -30 61 -27 28 2 52 4 53 6 2 2 -1 23
-5 48 -5 25 -9 81 -8 125 l1 80 7 -95 c5 -52 13 -107 19 -122z m-152 70 c-3
-7 -5 -2 -5 12 0 14 2 19 5 13 2 -7 2 -19 0 -25z m-25 -129 c10 -7 10 -11 0
-21 -18 -18 -29 0 -37 57 l-6 50 15 -39 c8 -21 21 -43 28 -47z m775 -126 c12
-31 -16 -107 -52 -140 -19 -18 -39 -33 -44 -33 -9 0 22 160 34 180 10 16 55
11 62 -7z m489 -89 c18 -14 18 -14 -6 -3 -31 14 -36 19 -24 19 6 0 19 -7 30
-16z m-182 -52 c3 -5 -1 -9 -9 -9 -8 0 -12 4 -9 9 3 4 7 8 9 8 2 0 6 -4 9 -8z
m-2027 -38 c-3 -3 -12 -4 -19 -1 -8 3 -5 6 6 6 11 1 17 -2 13 -5z m420 -57 c0
-7 -9 -14 -20 -14 -19 -2 -19 -2 -1 12 11 8 19 15 20 15 0 0 1 -6 1 -13z
m-1096 -90 c-13 -12 -20 -15 -15 -7 12 22 28 39 33 34 3 -3 -6 -15 -18 -27z
m1540 -191 c-10 -27 -24 -52 -32 -56 -35 -19 -81 -21 -136 -5 -56 16 -57 17
-33 30 14 7 50 16 82 19 39 5 68 16 94 36 22 16 40 27 41 26 1 -1 -6 -24 -16
-50z m779 -12 c0 -41 -15 -65 -16 -26 -1 9 -5 35 -9 57 -7 37 -7 39 8 26 11
-9 17 -29 17 -57z m-1203 20 c-3 -3 -12 -4 -19 -1 -8 3 -5 6 6 6 11 1 17 -2
13 -5z m1288 -37 c28 -19 63 -37 79 -41 l30 -7 -50 -49 c-45 -45 -98 -69 -99
-45 0 6 -8 21 -17 35 -13 19 -16 38 -11 83 3 31 9 57 12 57 3 0 29 -15 56 -33z
m-1995 6 c-8 -3 -27 -12 -42 -20 -16 -7 -28 -11 -28 -9 0 9 54 35 70 35 13 -1
13 -1 0 -6z m-130 -97 c-27 -35 -46 -67 -42 -71 4 -5 2 -5 -5 -1 -7 4 -14 -2
-18 -15 -4 -11 -9 -18 -12 -16 -9 10 39 89 79 127 22 22 42 40 44 40 3 0 -18
-29 -46 -64z m3180 9 c23 -7 24 -7 10 11 -14 18 -13 18 8 -1 21 -17 21 -21 8
-31 -9 -6 -12 -15 -8 -20 4 -4 -10 7 -30 26 -36 32 -53 54 -25 32 6 -5 23 -13
37 -17z m-1201 -12 c2 -1 -4 -9 -13 -18 -15 -15 -17 -14 -26 10 -14 36 -13 37
13 23 12 -7 24 -14 26 -15z m-1685 -25 c-23 -24 -53 -60 -69 -80 -15 -21 -32
-35 -38 -31 -6 3 -7 1 -3 -5 4 -7 -5 -32 -19 -57 -15 -24 -23 -50 -19 -56 4
-7 3 -9 -3 -6 -11 7 -48 -71 -39 -80 2 -2 10 13 17 34 10 32 13 35 19 18 5
-13 -1 -32 -15 -55 -13 -19 -28 -64 -36 -100 -10 -52 -14 -60 -19 -40 -5 19
-9 12 -15 -34 -8 -64 -2 -248 11 -281 12 -33 -11 -6 -50 59 -19 32 -48 91 -63
130 -24 61 -28 85 -27 166 2 218 98 351 311 429 43 16 82 29 88 30 5 1 -9 -18
-31 -41z m3048 -122 c-3 -15 7 -20 26 -13 4 1 6 7 4 12 -6 19 106 -97 119
-124 8 -14 26 -42 41 -61 16 -19 28 -39 28 -45 0 -5 -12 7 -27 28 -15 22 -29
34 -31 28 -2 -6 -10 -11 -19 -11 -10 0 -12 -6 -7 -22 4 -13 9 -30 11 -38 3 -8
-7 5 -22 30 -14 25 -38 57 -51 71 l-25 26 24 5 c16 3 24 1 21 -6 -3 -7 5 -12
16 -13 28 -2 25 8 -16 53 -26 28 -32 31 -20 12 12 -20 13 -29 4 -34 -7 -4 -14
-2 -16 5 -2 7 -15 22 -28 34 -13 11 -21 23 -19 27 3 5 -2 11 -11 14 -9 3 -14
13 -11 20 3 8 2 17 -4 20 -5 2 -4 3 3 2 7 -2 12 -10 10 -20z m257 -300 c10
-24 22 -59 25 -77 6 -31 5 -32 -5 -9 -6 14 -12 32 -14 40 -1 8 -8 14 -15 12
-6 -1 -9 2 -5 7 3 6 -1 26 -9 46 -22 51 -1 33 23 -19z m-638 -8 c7 -13 16 -38
20 -56 7 -32 6 -33 -19 -30 -29 3 -42 15 -42 38 0 13 1 13 10 0 16 -26 31 1
21 38 -11 37 -7 41 10 10z m-1211 -32 c-31 -17 -80 -29 -80 -20 0 16 38 33 70
33 35 0 35 0 10 -13z m26 -42 c-6 -23 -10 -26 -39 -20 -50 10 -52 23 -5 39 23
8 45 13 47 11 2 -2 0 -15 -3 -30z m-146 0 c0 -33 -76 -87 -90 -63 -11 16 8 57
29 62 25 7 61 8 61 1z m-1563 -66 c-2 -13 -4 -3 -4 22 0 25 2 35 4 23 2 -13 2
-33 0 -45z m3250 30 c-3 -8 -6 -5 -6 6 -1 11 2 17 5 13 3 -3 4 -12 1 -19z m10
-50 c-3 -8 -6 -5 -6 6 -1 11 2 17 5 13 3 -3 4 -12 1 -19z"/>
<path d="M2530 3206 c-42 -12 -43 -13 -20 -21 14 -5 43 -9 65 -10 22 -1 64 -6
93 -10 64 -10 70 6 10 28 -62 24 -97 27 -148 13z"/>
<path d="M2350 3046 c0 -8 5 -18 10 -21 6 -3 10 1 10 9 0 8 -4 18 -10 21 -5 3
-10 -1 -10 -9z"/>
<path d="M2328 2893 c7 -3 16 -2 19 1 4 3 -2 6 -13 5 -11 0 -14 -3 -6 -6z"/>
<path d="M2504 2694 c-18 -14 -18 -15 4 -4 12 6 22 13 22 15 0 8 -5 6 -26 -11z"/>
<path d="M2209 2593 c-13 -16 -12 -17 4 -4 16 13 21 21 13 21 -2 0 -10 -8 -17
-17z"/>
<path d="M2242 2575 c0 -16 2 -22 5 -12 2 9 2 23 0 30 -3 6 -5 -1 -5 -18z"/>
<path d="M2720 2296 c0 -2 8 -10 18 -17 15 -13 16 -12 3 4 -13 16 -21 21 -21
13z"/>
<path d="M831 2044 c0 -11 3 -14 6 -6 3 7 2 16 -1 19 -3 4 -6 -2 -5 -13z"/>
<path d="M821 2004 c0 -11 3 -14 6 -6 3 7 2 16 -1 19 -3 4 -6 -2 -5 -13z"/>
<path d="M4114 2258 c-4 -7 -4 -10 1 -6 4 4 14 0 21 -10 12 -16 13 -16 10 2
-3 24 -21 32 -32 14z"/>
<path d="M3030 4739 c0 -23 22 -49 41 -49 11 0 18 4 14 10 -3 5 -12 7 -20 3
-8 -3 -15 1 -15 8 0 7 3 9 7 6 3 -4 13 -1 21 6 11 8 14 8 9 0 -4 -6 -3 -14 2
-18 6 -3 8 -12 5 -19 -3 -7 2 -16 11 -20 9 -3 13 -2 10 4 -3 6 -1 10 4 10 6 0
11 -11 11 -24 0 -25 49 -92 50 -68 0 6 -3 12 -8 12 -4 0 -13 10 -21 23 l-14
22 25 -23 c13 -12 27 -20 29 -18 3 3 5 -3 5 -14 0 -10 -4 -16 -8 -14 -16 10
-8 -20 11 -40 10 -12 21 -34 25 -51 5 -22 4 -26 -4 -15 -24 36 -7 -14 25 -76
19 -36 35 -74 35 -85 0 -11 25 -46 55 -79 41 -44 55 -67 55 -89 0 -54 22 -134
70 -256 26 -66 53 -139 60 -162 7 -23 17 -40 21 -37 4 2 13 -4 18 -15 13 -23
32 -22 70 7 20 14 28 27 24 40 -3 12 2 22 12 26 9 3 14 9 12 13 -3 5 -8 38
-11 75 -4 54 -3 67 10 72 8 3 12 2 9 -3 -3 -5 -1 -12 4 -16 6 -3 15 3 20 13
11 20 51 37 51 21 0 -5 10 -9 22 -9 12 0 30 -8 40 -17 18 -16 21 -15 63 5 34
16 43 18 38 7 -4 -11 -1 -13 13 -8 22 8 54 40 54 53 0 6 5 10 10 10 6 0 10 -4
10 -9 0 -16 58 -41 64 -27 3 7 11 4 21 -9 11 -14 18 -16 23 -8 9 15 32 19 60
9 15 -5 29 -3 39 6 13 10 17 10 20 1 3 -7 13 -13 23 -13 10 0 20 -5 22 -12 2
-6 12 -9 21 -5 9 3 14 13 11 21 -8 21 10 27 33 11 15 -10 19 -22 16 -36 -4
-16 -2 -20 8 -17 7 2 15 17 16 32 1 16 4 31 7 34 3 3 1 11 -4 18 -8 9 1 13 40
16 39 2 50 0 51 -12 1 -8 4 -1 8 15 4 18 13 29 21 27 8 -2 20 4 27 14 8 11 20
15 34 11 43 -11 67 66 34 109 -8 10 -15 27 -15 37 0 9 -6 26 -12 37 -16 26 -1
54 32 58 39 6 78 58 85 116 3 21 -1 29 -14 33 -31 8 -60 92 -59 171 1 53 -2
74 -15 86 -16 16 -14 38 6 64 7 9 -151 12 -787 12 -557 0 -796 -3 -796 -11z
m88 -44 c-3 -3 -9 2 -12 12 -6 14 -5 15 5 6 7 -7 10 -15 7 -18z m1029 -227
c11 2 14 -1 10 -12 -4 -10 -1 -13 9 -9 7 3 14 9 14 14 0 22 28 5 58 -35 35
-47 39 -58 20 -55 -31 4 -49 -2 -68 -23 -24 -26 -26 -43 -5 -34 11 4 15 -2 15
-23 0 -39 87 -136 107 -119 7 6 15 9 16 7 67 -94 43 -104 -50 -22 -36 32 -72
58 -81 58 -8 0 -17 7 -19 15 -4 13 -3 13 6 0 5 -8 13 -11 17 -7 10 10 1 17
-32 23 -16 3 -29 6 -29 7 0 1 -14 21 -29 44 -23 35 -27 50 -23 79 8 49 25 68
45 52 11 -9 8 0 -6 23 -25 41 -29 64 -6 34 8 -11 22 -19 31 -17z m263 -253 c0
-8 6 -15 13 -15 8 0 8 -3 -2 -9 -8 -5 -21 -7 -28 -4 -11 4 -12 8 -3 13 7 4 9
13 6 19 -4 6 -2 11 3 11 6 0 11 -7 11 -15z m-356 -153 c9 -14 -9 -31 -23 -23
-7 5 -10 14 -7 20 8 13 23 14 30 3z"/>
<path d="M2883 4365 c0 -8 4 -12 9 -9 4 3 8 9 8 15 0 5 -4 9 -8 9 -5 0 -9 -7
-9 -15z"/>
<path d="M2914 4372 c3 -5 -9 -24 -25 -42 -17 -18 -33 -43 -35 -54 -2 -12 -10
-25 -17 -31 -15 -11 -12 -35 4 -35 6 0 7 5 3 12 -5 8 -2 9 10 5 10 -4 15 -3
11 3 -3 5 -1 19 5 30 8 14 8 20 0 20 -6 0 -8 5 -5 11 4 6 14 8 22 5 8 -3 25 5
38 20 20 22 22 29 12 45 -6 10 -15 19 -20 19 -4 0 -6 -4 -3 -8z m8 -29 c-6 -2
-10 -8 -8 -11 2 -4 -2 -13 -10 -20 -17 -15 -18 -8 -4 19 6 10 16 19 23 18 9 0
9 -2 -1 -6z"/>
<path d="M4560 3999 c0 -5 5 -7 10 -4 6 3 10 8 10 11 0 2 -4 4 -10 4 -5 0 -10
-5 -10 -11z"/>
<path d="M4510 3976 c0 -8 5 -18 10 -21 6 -3 10 3 10 14 0 12 -4 21 -10 21 -5
0 -10 -6 -10 -14z"/>
<path d="M2170 3960 c-8 -5 -10 -10 -5 -10 6 0 17 5 25 10 8 5 11 10 5 10 -5
0 -17 -5 -25 -10z"/>
<path d="M4418 3953 c7 -3 16 -2 19 1 4 3 -2 6 -13 5 -11 0 -14 -3 -6 -6z"/>
<path d="M2860 3836 c0 -2 8 -10 18 -17 15 -13 16 -12 3 4 -13 16 -21 21 -21
13z"/>
<path d="M1760 3755 c-13 -14 -22 -27 -19 -29 2 -2 14 10 27 25 29 36 24 38
-8 4z"/>
<path d="M1726 3695 c-9 -26 -7 -32 5 -12 6 10 9 21 6 23 -2 3 -7 -2 -11 -11z"/>
<path d="M11 3554 c1 -27 5 -62 9 -79 5 -18 6 1 3 45 -7 86 -14 107 -12 34z"/>
<path d="M310 3514 c0 -8 5 -12 10 -9 6 4 8 11 5 16 -9 14 -15 11 -15 -7z"/>
<path d="M1711 3444 c0 -11 3 -14 6 -6 3 7 2 16 -1 19 -3 4 -6 -2 -5 -13z"/>
<path d="M285 3429 c-4 -6 -1 -15 6 -20 21 -13 31 -11 27 8 -4 20 -24 28 -33
12z"/>
<path d="M917 3425 c-4 -8 -2 -17 3 -20 6 -4 10 3 10 14 0 25 -6 27 -13 6z"/>
<path d="M21 3414 c0 -11 3 -14 6 -6 3 7 2 16 -1 19 -3 4 -6 -2 -5 -13z"/>
<path d="M63 3330 c0 -25 2 -35 4 -22 2 12 2 32 0 45 -2 12 -4 2 -4 -23z"/>
<path d="M3205 3020 c10 -11 20 -20 23 -20 3 0 -3 9 -13 20 -10 11 -20 20 -23
20 -3 0 3 -9 13 -20z"/>
<path d="M1677 2988 c-37 -51 -43 -65 -18 -43 32 28 65 75 52 75 -5 0 -21 -15
-34 -32z"/>
<path d="M978 2923 c12 -2 32 -2 45 0 12 2 2 4 -23 4 -25 0 -35 -2 -22 -4z"/>
<path d="M1599 2893 c-13 -16 -12 -17 4 -4 9 7 17 15 17 17 0 8 -8 3 -21 -13z"/>
<path d="M863 2853 c9 -2 23 -2 30 0 6 3 -1 5 -18 5 -16 0 -22 -2 -12 -5z"/>
<path d="M1489 2813 c-13 -16 -12 -17 4 -4 16 13 21 21 13 21 -2 0 -10 -8 -17
-17z"/>
<path d="M610 2768 c-38 -25 -81 -66 -108 -102 -53 -71 -117 -204 -125 -261
-4 -26 3 -12 22 42 35 101 84 188 104 187 9 -1 13 4 11 10 -3 7 7 25 22 42
l26 29 -17 -33 c-9 -19 -14 -36 -11 -40 3 -3 6 0 6 6 0 7 5 12 11 12 5 0 7 -6
3 -12 -5 -9 -2 -9 9 1 10 8 17 9 17 3 0 -6 -8 -16 -17 -21 -10 -6 -13 -11 -7
-11 5 0 19 6 30 14 15 12 17 17 7 27 -7 7 -13 25 -13 39 0 32 14 51 63 79 33
20 45 31 33 31 -2 0 -32 -19 -66 -42z"/>
<path d="M859 2768 c-1 -7 -1 -19 0 -25 1 -7 -5 -13 -14 -13 -9 0 -13 -4 -10
-10 14 -22 33 -9 37 25 2 19 0 35 -4 35 -4 0 -9 -6 -9 -12z"/>
<path d="M3696 2771 c-14 -6 0 -14 60 -36 43 -15 111 -43 149 -62 44 -21 61
-26 45 -13 -14 11 -73 39 -132 62 -58 24 -104 46 -102 50 6 9 5 9 -20 -1z"/>
<path d="M1374 2734 c-18 -14 -18 -15 4 -4 12 6 22 13 22 15 0 8 -5 6 -26 -11z"/>
<path d="M1215 2660 c-13 -5 -14 -9 -5 -9 8 0 24 4 35 9 13 5 14 9 5 9 -8 0
-24 -4 -35 -9z"/>
<path d="M1150 2640 c-18 -12 -2 -12 25 0 13 6 15 9 5 9 -8 0 -22 -4 -30 -9z"/>
<path d="M901 2614 c0 -11 3 -14 6 -6 3 7 2 16 -1 19 -3 4 -6 -2 -5 -13z"/>
<path d="M1038 2613 c7 -3 16 -2 19 1 4 3 -2 6 -13 5 -11 0 -14 -3 -6 -6z"/>
<path d="M4035 2590 c10 -11 20 -20 23 -20 3 0 -3 9 -13 20 -10 11 -20 20 -23
20 -3 0 3 -9 13 -20z"/>
<path d="M611 2244 c0 -11 3 -14 6 -6 3 7 2 16 -1 19 -3 4 -6 -2 -5 -13z"/>
<path d="M1830 2215 c13 -14 26 -25 28 -25 3 0 -5 11 -18 25 -13 14 -26 25
-28 25 -3 0 5 -11 18 -25z"/>
<path d="M1850 2176 c0 -2 7 -9 15 -16 13 -11 14 -10 9 4 -5 14 -24 23 -24 12z"/>
<path d="M3745 2130 c9 -16 18 -30 21 -30 2 0 -2 14 -11 30 -9 17 -18 30 -21
30 -2 0 2 -13 11 -30z"/>
<path d="M1626 1697 c3 -10 9 -15 12 -12 3 3 0 11 -7 18 -10 9 -11 8 -5 -6z"/>
<path d="M1951 1594 c0 -11 3 -14 6 -6 3 7 2 16 -1 19 -3 4 -6 -2 -5 -13z"/>
<path d="M2009 1543 c-13 -16 -12 -17 4 -4 9 7 17 15 17 17 0 8 -8 3 -21 -13z"/>
<path d="M117 1516 c-13 -32 14 -95 54 -127 40 -31 59 -38 39 -14 -10 12 -10
15 1 16 8 0 4 4 -9 10 -20 8 -23 15 -21 54 2 24 0 47 -3 50 -11 11 -20 -34
-13 -65 4 -17 4 -30 1 -30 -11 0 -30 46 -36 85 -4 30 -7 36 -13 21z"/>
<path d="M2598 1523 c7 -3 16 -2 19 1 4 3 -2 6 -13 5 -11 0 -14 -3 -6 -6z"/>
<path d="M3300 1515 c0 -11 53 -85 58 -80 3 2 -7 23 -22 45 -24 37 -36 48 -36
35z"/>
<path d="M2687 1459 c7 -7 15 -10 18 -7 3 3 -2 9 -12 12 -14 6 -15 5 -6 -5z"/>
<path d="M1434 1421 c-15 -23 -25 -44 -22 -46 2 -3 17 14 32 36 14 23 25 44
22 46 -2 3 -17 -14 -32 -36z"/>
<path d="M2394 1398 l-19 -23 23 19 c21 18 27 26 19 26 -2 0 -12 -10 -23 -22z"/>
<path d="M4604 1410 c-35 -14 -50 -44 -46 -89 l4 -42 18 33 c13 25 27 35 58
42 23 6 42 13 42 18 0 13 -43 9 -74 -7 -37 -19 -39 -19 -26 5 6 11 25 27 43
34 34 15 17 21 -19 6z"/>
<path d="M1490 1397 c0 -2 15 -16 33 -33 l32 -29 -29 33 c-28 30 -36 37 -36
29z"/>
<path d="M1790 1345 c13 -14 26 -25 28 -25 3 0 -5 11 -18 25 -13 14 -26 25
-28 25 -3 0 5 -11 18 -25z"/>
<path d="M2349 1343 l-24 -28 28 24 c25 23 32 31 24 31 -2 0 -14 -12 -28 -27z"/>
<path d="M3160 1350 c-9 -6 -10 -10 -3 -10 6 0 15 5 18 10 8 12 4 12 -15 0z"/>
<path d="M2886 1333 c5 -5 12 -12 16 -18 4 -6 8 -2 8 8 0 9 -7 17 -17 17 -9 0
-12 -3 -7 -7z"/>
<path d="M1653 1313 c15 -2 39 -2 55 0 15 2 2 4 -28 4 -30 0 -43 -2 -27 -4z"/>
<path d="M2948 1313 c6 -2 18 -2 25 0 6 3 1 5 -13 5 -14 0 -19 -2 -12 -5z"/>
<path d="M272 1260 c17 -28 33 -48 35 -46 5 5 -50 96 -59 96 -4 0 7 -23 24
-50z"/>
<path d="M2285 1268 l-40 -43 43 40 c39 36 47 45 39 45 -2 0 -21 -19 -42 -42z"/>
<path d="M3391 1305 c-6 -26 1 -189 9 -208 7 -17 9 -10 8 28 -1 57 -14 195
-17 180z"/>
<path d="M2946 1269 c-11 -71 -14 -109 -6 -114 4 -2 10 28 13 67 6 76 2 104
-7 47z"/>
<path d="M1462 1260 c0 -19 2 -27 5 -17 2 9 2 25 0 35 -3 9 -5 1 -5 -18z"/>
<path d="M1381 1248 c0 -18 4 -55 9 -83 7 -47 7 -45 9 33 0 49 -3 82 -9 82 -5
0 -10 -15 -9 -32z"/>
<path d="M1834 1216 c12 -35 22 -55 24 -44 4 20 -27 108 -37 108 -4 0 2 -29
13 -64z"/>
<path d="M3760 1256 c0 -2 8 -10 18 -17 15 -13 16 -12 3 4 -13 16 -21 21 -21
13z"/>
<path d="M4520 1170 c-7 -28 -10 -53 -7 -56 2 -3 10 18 17 46 7 28 10 53 7 56
-2 3 -10 -18 -17 -46z"/>
<path d="M1462 1185 c0 -16 2 -22 5 -12 2 9 2 23 0 30 -3 6 -5 -1 -5 -18z"/>
<path d="M2189 1173 c-13 -16 -12 -17 4 -4 16 13 21 21 13 21 -2 0 -10 -8 -17
-17z"/>
<path d="M3239 1133 c-13 -16 -12 -17 4 -4 16 13 21 21 13 21 -2 0 -10 -8 -17
-17z"/>
<path d="M3070 1136 c0 -2 8 -10 18 -17 15 -13 16 -12 3 4 -13 16 -21 21 -21
13z"/>
<path d="M383 1061 c18 -38 34 -68 36 -65 6 5 -52 133 -61 134 -3 0 8 -31 25
-69z"/>
<path d="M3742 1050 c0 -14 2 -19 5 -12 2 6 2 18 0 25 -3 6 -5 1 -5 -13z"/>
<path d="M2946 970 c4 -47 7 -91 7 -97 0 -7 4 -13 8 -13 10 0 1 122 -12 165
-6 20 -7 1 -3 -55z"/>
<path d="M3920 1030 c6 -11 13 -20 16 -20 2 0 0 9 -6 20 -6 11 -13 20 -16 20
-2 0 0 -9 6 -20z"/>
<path d="M4485 993 c-4 -26 -9 -56 -12 -65 -2 -10 0 -18 5 -18 10 0 27 118 18
127 -2 3 -7 -17 -11 -44z"/>
<path d="M1855 960 c1 -38 4 -72 8 -76 4 -4 7 27 7 69 0 43 -4 77 -8 77 -5 0
-8 -31 -7 -70z"/>
<path d="M3302 1010 c0 -14 2 -19 5 -12 2 6 2 18 0 25 -3 6 -5 1 -5 -13z"/>
<path d="M1415 946 c5 -74 9 -96 19 -85 2 2 -3 40 -10 84 l-13 80 4 -79z"/>
<path d="M3946 987 c3 -10 9 -15 12 -12 3 3 0 11 -7 18 -10 9 -11 8 -5 -6z"/>
<path d="M3970 940 c6 -11 13 -20 16 -20 2 0 0 9 -6 20 -6 11 -13 20 -16 20
-2 0 0 -9 6 -20z"/>
<path d="M3390 898 c0 -24 -4 -60 -9 -80 -5 -21 -5 -38 -1 -38 5 0 11 17 14
38 15 102 17 122 6 122 -5 0 -10 -19 -10 -42z"/>
<path d="M3292 910 c0 -14 2 -19 5 -12 2 6 2 18 0 25 -3 6 -5 1 -5 -13z"/>
<path d="M451 868 c17 -81 20 -90 25 -85 8 7 -17 127 -26 127 -4 0 -4 -19 1
-42z"/>
<path d="M2834 824 c-17 -7 -76 -25 -132 -39 -105 -27 -136 -26 -280 6 -33 7
-59 5 -115 -9 -70 -18 -75 -18 -152 0 -173 39 -219 47 -224 42 -3 -3 -6 -123
-7 -267 l0 -262 -29 -70 c-15 -38 -40 -95 -55 -125 -15 -30 -31 -65 -34 -77
l-7 -23 710 0 711 0 -45 91 c-25 49 -75 132 -111 184 -68 98 -102 167 -124
250 -7 28 -21 66 -30 85 -28 59 -45 131 -32 139 11 7 6 78 -7 85 -3 2 -20 -3
-37 -10z"/>
<path d="M3281 824 c0 -11 3 -14 6 -6 3 7 2 16 -1 19 -3 4 -6 -2 -5 -13z"/>
<path d="M4457 820 c-4 -14 -6 -50 -6 -80 l1 -55 9 60 c11 70 8 116 -4 75z"/>
<path d="M1852 718 c-1 -56 2 -76 8 -63 11 26 13 145 1 145 -4 0 -9 -37 -9
-82z"/>
<path d="M4531 774 c0 -11 3 -14 6 -6 3 7 2 16 -1 19 -3 4 -6 -2 -5 -13z"/>
<path d="M1163 715 c0 -33 2 -45 4 -27 2 18 2 45 0 60 -2 15 -4 0 -4 -33z"/>
<path d="M3272 750 c0 -14 2 -19 5 -12 2 6 2 18 0 25 -3 6 -5 1 -5 -13z"/>
<path d="M1451 746 c-1 -27 30 -136 39 -136 4 0 -1 30 -11 68 -23 83 -27 92
-28 68z"/>
<path d="M2982 720 c-1 -19 8 -60 18 -90 21 -58 19 -35 -4 65 -11 49 -14 54
-14 25z"/>
<path d="M881 694 c0 -11 3 -14 6 -6 3 7 2 16 -1 19 -3 4 -6 -2 -5 -13z"/>
<path d="M3261 694 c0 -11 3 -14 6 -6 3 7 2 16 -1 19 -3 4 -6 -2 -5 -13z"/>
<path d="M497 618 c7 -78 11 -82 12 -10 1 34 -3 62 -8 62 -4 0 -6 -24 -4 -52z"/>
<path d="M3342 639 c-11 -29 -26 -126 -19 -119 8 7 36 134 32 139 -3 2 -8 -7
-13 -20z"/>
<path d="M873 585 c0 -33 2 -45 4 -27 2 18 2 45 0 60 -2 15 -4 0 -4 -33z"/>
<path d="M4022 600 c0 -14 2 -19 5 -12 2 6 2 18 0 25 -3 6 -5 1 -5 -13z"/>
<path d="M4511 594 c0 -11 3 -14 6 -6 3 7 2 16 -1 19 -3 4 -6 -2 -5 -13z"/>
<path d="M4436 543 c-4 -32 -9 -66 -12 -75 -3 -10 -1 -18 4 -18 10 0 28 137
19 146 -2 3 -8 -21 -11 -53z"/>
<path d="M3231 554 c0 -11 3 -14 6 -6 3 7 2 16 -1 19 -3 4 -6 -2 -5 -13z"/>
<path d="M1846 539 c-9 -44 -13 -129 -6 -129 8 0 23 140 16 148 -3 2 -7 -6
-10 -19z"/>
<path d="M442 515 c0 -16 2 -22 5 -12 2 9 2 23 0 30 -3 6 -5 -1 -5 -18z"/>
<path d="M1548 470 c35 -65 49 -65 15 0 -14 28 -30 50 -34 50 -5 0 3 -22 19
-50z"/>
<path d="M3064 455 c8 -31 55 -119 61 -113 2 2 -12 35 -32 73 -20 39 -32 57
-29 40z"/>
<path d="M513 415 c0 -27 2 -38 4 -22 2 15 2 37 0 50 -2 12 -4 0 -4 -28z"/>
<path d="M4051 434 c0 -11 3 -14 6 -6 3 7 2 16 -1 19 -3 4 -6 -2 -5 -13z"/>
<path d="M3211 414 c0 -11 3 -14 6 -6 3 7 2 16 -1 19 -3 4 -6 -2 -5 -13z"/>
<path d="M3308 384 c-5 -4 -7 -37 -7 -73 l1 -66 9 55 c10 59 9 97 -3 84z"/>
<path d="M4379 300 c-15 -39 -23 -70 -18 -70 5 0 9 2 9 4 0 2 11 33 25 70 14
36 21 66 17 66 -4 0 -19 -32 -33 -70z"/>
<path d="M1620 356 c0 -17 45 -126 53 -126 5 0 5 10 1 23 -9 30 -53 114 -54
103z"/>
<path d="M3212 340 c0 -14 2 -19 5 -12 2 6 2 18 0 25 -3 6 -5 1 -5 -13z"/>
<path d="M1798 280 c-9 -25 -20 -44 -25 -43 -6 1 -8 -9 -5 -22 2 -14 6 -25 7
-25 7 0 45 114 42 124 -2 6 -11 -9 -19 -34z"/>
<path d="M520 256 c0 -26 39 -106 52 -106 6 0 6 6 -2 14 -6 8 -20 36 -30 63
-11 26 -19 39 -20 29z"/>
<path d="M3221 254 c0 -11 3 -14 6 -6 3 7 2 16 -1 19 -3 4 -6 -2 -5 -13z"/>
<path d="M3190 233 c0 -5 9 -19 20 -33 11 -14 20 -32 21 -40 0 -10 2 -11 6 -3
2 7 -5 29 -17 48 -21 34 -30 43 -30 28z"/>
<path d="M3300 90 c0 -40 3 -70 8 -66 7 8 4 127 -4 135 -2 2 -4 -29 -4 -69z"/>
<path d="M4278 116 c-35 -54 -36 -71 -2 -25 34 45 46 69 37 69 -4 0 -20 -20
-35 -44z"/>
<path d="M1687 143 c-12 -11 -8 -125 3 -118 9 5 13 125 5 125 -1 0 -5 -3 -8
-7z"/>
<path d="M3242 70 c0 -19 2 -27 5 -17 2 9 2 25 0 35 -3 9 -5 1 -5 -18z"/>
<path d="M632 65 c10 -29 32 -65 40 -65 5 0 4 8 -1 18 -12 22 -43 60 -39 47z"/>
</g>
</svg>
