<?xml version="1.0" standalone="no"?>
<!DOCTYPE svg PUBLIC "-//W3C//DTD SVG 20010904//EN"
 "http://www.w3.org/TR/2001/REC-SVG-20010904/DTD/svg10.dtd">
<svg version="1.0" xmlns="http://www.w3.org/2000/svg"
 width="500.000000pt" height="500.000000pt" viewBox="0 0 500.000000 500.000000"
 preserveAspectRatio="xMidYMid meet">
<metadata>
Created by potrace 1.14, written by Peter Selinger 2001-2017
</metadata>
<g transform="translate(0.000000,500.000000) scale(0.100000,-0.100000)"
fill="#000000" stroke="none">
<path d="M1880 4600 c0 -5 7 -7 15 -4 8 4 15 8 15 10 0 2 -7 4 -15 4 -8 0 -15
-4 -15 -10z"/>
<path d="M1988 4603 c7 -3 16 -2 19 1 4 3 -2 6 -13 5 -11 0 -14 -3 -6 -6z"/>
<path d="M1757 4541 c-23 -22 -40 -41 -37 -43 3 -2 24 16 48 40 54 53 46 55
-11 3z"/>
<path d="M2140 4576 c0 -2 7 -7 16 -10 8 -3 12 -2 9 4 -6 10 -25 14 -25 6z"/>
<path d="M2187 4559 c7 -7 15 -10 18 -7 3 3 -2 9 -12 12 -14 6 -15 5 -6 -5z"/>
<path d="M2230 4540 c8 -5 20 -10 25 -10 6 0 3 5 -5 10 -8 5 -19 10 -25 10 -5
0 -3 -5 5 -10z"/>
<path d="M2278 4523 c7 -3 16 -2 19 1 4 3 -2 6 -13 5 -11 0 -14 -3 -6 -6z"/>
<path d="M1704 4453 c-3 -16 -9 -42 -13 -58 -5 -17 -5 -39 -1 -50 4 -11 6 -23
3 -27 -2 -5 1 -8 7 -8 6 0 8 -5 5 -10 -15 -25 125 -134 188 -145 74 -15 78
-14 27 7 -140 58 -220 164 -207 274 7 49 1 59 -9 17z"/>
<path d="M2489 4208 c-107 -102 -169 -138 -169 -99 0 33 -128 49 -178 22 -10
-6 -22 -7 -26 -4 -3 3 -6 2 -6 -4 0 -6 -9 -9 -20 -6 -11 3 -20 1 -20 -5 0 -11
-16 -21 -90 -59 -19 -10 -38 -22 -42 -28 -4 -5 -8 -6 -8 -2 0 4 -9 -1 -21 -12
-11 -10 -43 -37 -70 -58 -173 -134 -288 -237 -366 -329 -73 -84 -161 -207
-188 -261 -14 -28 -43 -69 -64 -91 -84 -86 -163 -211 -194 -307 -17 -50 -23
-85 -33 -185 -7 -68 -7 -62 -5 -80 2 -23 17 7 25 51 4 21 13 42 21 49 13 11
15 7 17 -21 1 -35 4 -60 8 -69 1 -3 3 -12 5 -21 7 -37 17 -59 26 -59 6 0 8 -3
6 -7 -3 -5 -1 -17 4 -28 6 -12 6 5 2 45 -8 81 -8 82 1 155 4 33 11 64 16 70 5
5 8 12 8 15 -3 14 28 91 53 136 34 60 63 80 53 36 -4 -15 -13 -33 -22 -39 -9
-7 -12 -13 -8 -13 5 0 3 -6 -3 -14 -6 -7 -12 -42 -13 -77 -2 -35 -7 -67 -13
-71 -6 -5 -5 -8 2 -8 9 0 10 -7 3 -25 -5 -13 -11 -62 -14 -108 -3 -46 -6 -87
-7 -93 -3 -17 1 -34 9 -34 4 0 7 12 6 27 0 15 5 52 11 82 23 105 40 121 42 39
3 -109 32 -194 89 -256 l43 -47 -15 44 c-23 67 -20 147 8 231 7 19 12 37 13
40 2 14 31 70 36 70 10 0 27 -161 23 -230 -4 -82 -7 -94 -38 -170 -21 -54 -22
-60 -5 -42 10 12 19 26 19 32 0 5 5 10 10 10 6 0 9 3 8 8 -2 10 25 66 37 74
11 8 44 -46 45 -73 1 -43 -104 -106 -141 -83 -8 4 -10 3 -5 -4 4 -7 2 -12 -3
-12 -6 0 -11 -5 -11 -10 0 -12 67 -11 92 2 10 5 19 4 23 -2 3 -5 1 -10 -5 -10
-6 0 -9 -3 -7 -7 2 -5 -4 -16 -15 -25 -10 -10 -18 -15 -18 -12 0 3 -12 -3 -27
-14 -28 -18 -134 -59 -176 -67 -12 -3 -46 -12 -74 -20 -29 -9 -79 -23 -110
-31 -132 -37 -253 -92 -253 -114 0 -6 -6 -10 -14 -10 -19 0 -106 -84 -105
-101 0 -10 2 -11 6 -1 2 6 11 12 19 12 9 0 13 4 9 9 -3 5 -1 12 4 15 5 4 8 -2
7 -11 -2 -9 -8 -19 -14 -21 -7 -2 -12 -15 -12 -28 0 -14 -4 -23 -8 -20 -4 2
-8 -3 -9 -12 0 -9 -3 -41 -7 -70 -3 -30 -2 -61 3 -71 7 -11 2 -33 -15 -70 -37
-79 -53 -154 -57 -259 -4 -100 6 -134 16 -52 8 69 69 181 135 247 29 30 56 53
59 50 3 -3 -7 -31 -21 -61 -70 -147 -66 -262 12 -348 37 -41 108 -79 155 -83
31 -3 47 12 23 21 -24 9 -54 65 -67 123 -16 76 3 163 54 249 58 97 132 163
244 218 92 44 131 52 125 23 -2 -8 6 -5 21 9 23 21 102 52 134 52 17 0 17 -27
-1 -37 -17 -10 -50 -80 -70 -150 -21 -75 -15 -174 17 -245 32 -71 67 -108 137
-143 44 -22 67 -27 124 -27 38 1 79 -4 90 -10 18 -10 19 -9 8 4 -10 13 -10 17
0 22 7 3 2 4 -11 2 -70 -14 -133 85 -133 209 0 39 5 90 12 115 12 43 56 140
69 150 3 3 25 30 47 60 23 30 51 64 61 75 11 11 33 39 49 62 26 35 33 39 50
30 49 -27 46 -35 -57 -149 -114 -126 -144 -165 -152 -196 -9 -39 63 -182 100
-196 8 -4 31 12 54 36 41 44 45 41 40 -25 -2 -23 3 -30 26 -39 l29 -11 -17
-51 c-9 -28 -19 -67 -22 -87 -5 -32 -3 -36 14 -32 10 3 27 2 36 -2 16 -6 14
-9 -10 -21 -16 -9 -52 -33 -80 -55 -29 -21 -58 -39 -64 -39 -7 0 -13 -4 -13
-8 0 -5 -6 -9 -12 -10 -11 -1 -112 -28 -297 -79 -44 -12 -56 -21 -65 -44 -7
-19 -20 -32 -36 -35 -95 -20 -157 -76 -247 -219 -83 -134 -115 -211 -153 -373
-17 -72 -28 -93 -79 -160 -33 -42 -65 -89 -70 -104 l-11 -28 2041 0 2040 0
-29 53 c-50 92 -75 124 -113 148 -65 40 -90 102 -144 356 -56 258 -100 374
-172 454 -73 80 -174 131 -288 143 -89 11 -103 16 -109 41 -4 17 -18 25 -53
35 -151 39 -319 109 -348 143 -19 22 -130 94 -178 115 -26 12 -60 34 -75 50
-38 42 -144 108 -203 127 -52 17 -69 37 -69 79 0 13 -11 38 -25 55 -23 27 -26
38 -25 123 0 51 -2 113 -3 138 -3 44 9 90 23 90 16 0 59 -42 66 -63 3 -12 23
-44 43 -72 21 -27 53 -75 72 -105 45 -73 61 -92 144 -176 59 -59 174 -140 237
-166 30 -12 51 -67 46 -120 -4 -34 -2 -46 5 -39 6 6 11 33 11 61 1 49 2 51 26
45 14 -4 27 -11 28 -16 2 -5 10 -9 18 -9 11 0 -13 25 -92 95 -6 6 -28 23 -48
39 -63 49 -28 52 70 7 48 -23 96 -49 106 -58 16 -15 18 -15 18 0 0 27 68 1
110 -43 8 -9 27 -23 43 -33 27 -17 28 -17 52 9 27 29 45 81 45 132 0 35 19 44
27 12 7 -28 22 -25 55 12 37 41 41 59 36 161 -3 67 -9 90 -27 116 -23 32 -23
33 -7 90 24 86 6 122 -96 187 -44 28 -50 37 -55 82 -10 92 -104 196 -244 271
-35 19 -62 32 -59 28 10 -11 110 -77 110 -73 0 3 21 -18 48 -47 26 -28 53 -58
60 -65 28 -31 60 -132 41 -132 -12 0 -48 21 -69 40 -37 34 -183 166 -203 183
-12 10 -22 24 -22 30 0 7 -4 12 -10 12 -5 0 -25 9 -42 20 -36 21 -37 43 -2 80
26 29 49 89 49 127 0 17 -5 58 -12 90 -11 53 -10 62 11 113 31 76 29 126 -10
205 -18 36 -33 76 -35 90 -12 103 -16 125 -29 157 -8 19 -29 53 -47 76 -18 22
-41 56 -51 76 -41 77 -70 127 -88 153 -11 14 -19 29 -19 33 0 3 -6 12 -12 19
-7 7 -27 28 -43 47 -17 19 -48 48 -70 64 -38 29 -205 115 -289 149 -22 9 -69
36 -105 60 -118 77 -260 136 -330 136 -29 0 -46 -8 -72 -32z m1154 -2040 c37
-76 142 -228 158 -228 5 0 9 -7 9 -15 0 -8 5 -15 11 -15 22 0 108 -120 132
-183 6 -15 4 -16 -16 -6 -12 7 -24 15 -27 20 -10 15 -204 109 -225 109 -11 0
-25 4 -30 8 -6 5 -44 19 -85 32 -41 13 -87 29 -101 36 -27 13 -50 62 -68 142
-9 42 -9 42 19 42 27 0 84 38 103 68 5 7 12 10 16 7 5 -2 20 9 35 25 14 17 28
30 30 30 2 0 20 -33 39 -72z m-2418 -137 c22 -3 -150 -120 -215 -145 -111 -43
-193 -91 -322 -185 -10 -8 -21 -12 -23 -9 -12 12 47 174 69 190 6 4 8 8 4 8
-22 0 98 100 121 100 9 0 48 13 61 20 30 17 238 31 305 21z m2692 -310 c52
-21 94 -107 61 -127 -6 -4 -17 1 -25 12 -7 10 -19 26 -26 34 -43 54 -65 88
-60 94 4 4 9 5 12 3 3 -2 21 -9 38 -16z m-1565 -108 c2 -10 -2 -33 -9 -50 -7
-18 -12 -36 -11 -40 0 -5 -2 -17 -6 -28 -4 -11 -12 -31 -17 -45 -9 -23 -58
-60 -79 -60 -18 0 9 180 31 204 8 9 61 31 81 35 3 0 8 -7 10 -16z m-301 -392
c-12 -12 -21 -17 -21 -12 0 12 31 43 37 37 3 -2 -5 -14 -16 -25z m-31 -15 c0
-2 -8 -10 -17 -17 -16 -13 -17 -12 -4 4 13 16 21 21 21 13z"/>
<path d="M1995 4130 c27 -12 43 -12 25 0 -8 5 -22 9 -30 9 -10 0 -8 -3 5 -9z"/>
<path d="M1790 3990 c0 -5 7 -7 15 -4 8 4 15 8 15 10 0 2 -7 4 -15 4 -8 0 -15
-4 -15 -10z"/>
<path d="M1665 3955 c-25 -12 -26 -14 -5 -9 28 7 60 23 45 23 -5 0 -23 -6 -40
-14z"/>
<path d="M1585 3920 c-3 -6 1 -7 9 -4 18 7 21 14 7 14 -6 0 -13 -4 -16 -10z"/>
<path d="M1445 3860 c-3 -6 1 -7 9 -4 18 7 21 14 7 14 -6 0 -13 -4 -16 -10z"/>
<path d="M1394 3834 c-18 -14 -18 -14 6 -3 31 14 36 19 24 19 -6 0 -19 -7 -30
-16z"/>
<path d="M1333 3799 c-35 -22 -46 -37 -15 -20 22 13 58 40 52 41 -3 0 -20 -10
-37 -21z"/>
<path d="M1253 3748 c-18 -11 -33 -24 -33 -30 0 -5 -5 -6 -12 -2 -6 4 -8 3 -4
-4 3 -6 -3 -13 -14 -17 -21 -7 -70 -53 -108 -101 -27 -35 -98 -178 -108 -216
-7 -31 13 -40 22 -10 12 41 48 127 54 132 4 3 13 17 21 31 26 49 132 166 199
219 32 25 24 24 -17 -2z"/>
<path d="M970 3316 c0 -13 -3 -33 -7 -43 -3 -10 -3 -15 1 -11 12 10 25 78 15
78 -5 0 -9 -11 -9 -24z"/>
<path d="M953 3215 c-3 -9 -3 -18 -1 -21 3 -3 8 4 11 16 6 23 -1 27 -10 5z"/>
<path d="M1055 2285 c-110 -18 -125 -21 -167 -39 -21 -9 -38 -13 -38 -9 0 5
-4 3 -8 -2 -4 -6 -29 -22 -55 -35 -26 -14 -60 -38 -75 -55 -15 -16 -19 -23 -9
-16 24 19 74 47 120 68 20 10 37 21 37 25 0 4 6 5 14 2 8 -3 17 0 21 5 3 6 10
9 15 6 5 -3 11 -1 15 5 3 5 19 10 34 10 15 0 31 4 37 9 5 5 36 12 69 16 33 4
85 11 115 15 l55 7 -50 1 c-27 0 -86 -6 -130 -13z"/>
<path d="M1248 2293 c7 -3 16 -2 19 1 4 3 -2 6 -13 5 -11 0 -14 -3 -6 -6z"/>
<path d="M619 2053 c-13 -16 -12 -17 4 -4 9 7 17 15 17 17 0 8 -8 3 -21 -13z"/>
<path d="M583 1995 c-3 -9 -3 -18 -1 -21 3 -3 8 4 11 16 6 23 -1 27 -10 5z"/>
<path d="M1263 1702 c-17 -20 -29 -39 -27 -42 6 -5 64 61 64 73 0 11 -3 9 -37
-31z"/>
<path d="M1198 1615 c-16 -18 -28 -36 -28 -39 0 -4 14 9 31 29 18 20 30 37 28
39 -2 1 -16 -12 -31 -29z"/>
<path d="M1120 1495 c-7 -9 -11 -17 -9 -20 3 -2 10 5 17 15 14 24 10 26 -8 5z"/>
<path d="M1116 1165 c4 -8 11 -15 16 -15 6 0 5 6 -2 15 -7 8 -14 15 -16 15 -2
0 -1 -7 2 -15z"/>
<path d="M1167 1119 c7 -7 15 -10 18 -7 3 3 -2 9 -12 12 -14 6 -15 5 -6 -5z"/>
</g>
</svg>
